<?xml version="1.0" standalone="no"?><!-- Generator: Gravit.io --><svg xmlns="http://www.w3.org/2000/svg" xmlns:xlink="http://www.w3.org/1999/xlink" style="isolation:isolate" viewBox="0 0 500.583 235.004" width="500.583" height="235.004"><defs><clipPath id="_clipPath_V4yWCWZivbrFC8BUkJKLFfEBPqRZr4hJ"><rect width="500.583" height="235.004"/></clipPath></defs><g clip-path="url(#_clipPath_V4yWCWZivbrFC8BUkJKLFfEBPqRZr4hJ)"><g><g><g><path d=" M 249.276 146.127 L 0 146.127 L 0 15.043 C 0 6.735 6.735 0 15.043 0 L 234.234 0 C 242.542 0 249.276 6.735 249.276 15.043 L 249.276 146.127 L 249.276 146.127 Z " fill="rgb(56,69,79)"/><path d=" M 176.212 232.085 L 73.064 232.085 C 73.064 222.591 80.761 214.893 90.255 214.893 L 159.02 214.893 C 168.515 214.893 176.212 222.591 176.212 232.085 Z " fill="rgb(232,237,238)"/><path d=" M 154.723 214.893 L 94.553 214.893 L 103.149 180.51 L 146.127 180.51 L 154.723 214.893 Z " fill="rgb(176,182,187)"/><path d=" M 234.233 180.51 L 15.043 180.51 C 6.735 180.51 0 173.775 0 165.468 L 0 146.127 L 249.276 146.127 L 249.276 165.468 C 249.276 173.775 242.541 180.51 234.233 180.51 Z " fill="rgb(232,237,238)"/><g><path d=" M 141.829 133.234 C 139.452 133.234 137.531 131.308 137.531 128.936 L 137.531 116.042 C 137.531 113.67 139.452 111.744 141.829 111.744 C 144.206 111.744 146.127 113.67 146.127 116.042 L 146.127 128.936 C 146.127 131.309 144.206 133.234 141.829 133.234 Z " fill="rgb(37,174,136)"/><path d=" M 159.021 133.234 C 156.644 133.234 154.723 131.308 154.723 128.936 L 154.723 98.851 C 154.723 96.479 156.644 94.553 159.021 94.553 C 161.398 94.553 163.319 96.479 163.319 98.851 L 163.319 128.936 C 163.319 131.309 161.397 133.234 159.021 133.234 Z " fill="rgb(37,174,136)"/><path d=" M 176.212 133.234 C 173.835 133.234 171.914 131.308 171.914 128.936 L 171.914 107.446 C 171.914 105.074 173.835 103.148 176.212 103.148 C 178.589 103.148 180.51 105.074 180.51 107.446 L 180.51 128.936 C 180.51 131.309 178.589 133.234 176.212 133.234 Z " fill="rgb(37,174,136)"/><path d=" M 193.404 133.234 C 191.027 133.234 189.105 131.308 189.105 128.936 L 189.105 77.362 C 189.105 74.989 191.027 73.064 193.404 73.064 C 195.78 73.064 197.702 74.989 197.702 77.362 L 197.702 128.936 C 197.702 131.309 195.78 133.234 193.404 133.234 Z " fill="rgb(37,174,136)"/><path d=" M 210.595 133.234 C 208.218 133.234 206.297 131.308 206.297 128.936 L 206.297 94.552 C 206.297 92.18 208.218 90.254 210.595 90.254 C 212.972 90.254 214.893 92.18 214.893 94.552 L 214.893 128.936 C 214.893 131.309 212.972 133.234 210.595 133.234 Z " fill="rgb(37,174,136)"/></g><path d=" M 116.042 70.915 C 116.042 95.838 95.838 116.042 70.915 116.042 C 45.991 116.042 25.787 95.838 25.787 70.915 C 25.787 45.991 45.991 25.787 70.915 25.787 C 95.838 25.787 116.042 45.991 116.042 70.915 Z " fill="rgb(221,105,29)"/><path d=" M 68.824 25.835 C 68.803 25.856 68.79 25.873 68.764 25.895 L 68.764 72.905 C 68.764 72.995 68.837 73.064 68.923 73.064 L 115.933 73.064 C 115.955 73.043 115.972 73.03 115.994 73.004 C 117.193 46.43 95.398 24.635 68.824 25.835 Z " fill="rgb(236,186,22)"/><g><path d=" M 189.106 47.277 L 154.723 47.277 C 152.346 47.277 150.425 45.351 150.425 42.979 C 150.425 40.606 152.346 38.681 154.723 38.681 L 189.106 38.681 C 191.483 38.681 193.404 40.606 193.404 42.979 C 193.404 45.351 191.482 47.277 189.106 47.277 Z " fill="rgb(221,105,29)"/><path d=" M 210.595 47.277 C 209.478 47.277 208.356 46.804 207.544 46.03 C 207.372 45.816 207.157 45.6 207.028 45.386 C 206.856 45.128 206.727 44.87 206.641 44.612 C 206.512 44.354 206.427 44.097 206.383 43.838 C 206.341 43.538 206.297 43.237 206.297 42.979 C 206.297 42.721 206.34 42.42 206.383 42.119 C 206.426 41.861 206.512 41.603 206.641 41.345 C 206.728 41.087 206.856 40.83 207.028 40.572 C 207.157 40.357 207.372 40.142 207.544 39.927 C 209.134 38.337 212.014 38.337 213.646 39.927 C 214.42 40.743 214.893 41.818 214.893 42.979 C 214.893 44.139 214.42 45.213 213.646 46.03 C 212.83 46.804 211.713 47.277 210.595 47.277 Z " fill="rgb(221,105,29)"/><path d=" M 210.595 25.787 L 197.702 25.787 C 195.325 25.787 193.404 23.862 193.404 21.489 C 193.404 19.117 195.325 17.191 197.702 17.191 L 210.595 17.191 C 212.972 17.191 214.893 19.117 214.893 21.489 C 214.893 23.862 212.972 25.787 210.595 25.787 Z " fill="rgb(221,105,29)"/><path d=" M 163.319 25.787 L 154.723 25.787 C 152.346 25.787 150.425 23.862 150.425 21.489 C 150.425 19.117 152.346 17.191 154.723 17.191 L 163.319 17.191 C 165.695 17.191 167.617 19.117 167.617 21.489 C 167.617 23.862 165.695 25.787 163.319 25.787 Z " fill="rgb(221,105,29)"/><path d=" M 180.51 25.787 C 179.393 25.787 178.271 25.315 177.459 24.541 C 176.681 23.725 176.212 22.607 176.212 21.489 C 176.212 20.372 176.681 19.255 177.459 18.438 C 177.889 18.051 178.318 17.75 178.877 17.535 C 180.467 16.848 182.358 17.234 183.562 18.438 C 184.335 19.254 184.808 20.371 184.808 21.489 C 184.808 22.607 184.335 23.724 183.562 24.541 C 182.745 25.315 181.628 25.787 180.51 25.787 Z " fill="rgb(221,105,29)"/></g></g></g><g><g><g><path d=" M 482.502 78.046 L 283.228 78.046 C 275.411 78.046 269.07 71.705 269.07 63.888 L 269.07 17.649 C 269.07 9.832 275.411 3.491 283.228 3.491 L 482.498 3.491 C 490.318 3.491 496.659 9.832 496.659 17.649 L 496.659 63.884 C 496.659 71.705 490.318 78.046 482.502 78.046 Z " fill="rgb(85,96,128)"/><path d=" M 482.502 152.601 L 283.228 152.601 C 275.411 152.601 269.07 146.26 269.07 138.443 L 269.07 92.204 C 269.07 84.387 275.411 78.046 283.228 78.046 L 482.498 78.046 C 490.318 78.046 496.659 84.387 496.659 92.204 L 496.659 138.439 C 496.659 146.26 490.318 152.601 482.502 152.601 Z " fill="rgb(56,69,79)"/><path d=" M 482.502 227.156 L 283.228 227.156 C 275.411 227.156 269.07 220.815 269.07 212.998 L 269.07 166.759 C 269.07 158.942 275.411 152.601 283.228 152.601 L 482.498 152.601 C 490.318 152.601 496.659 158.942 496.659 166.759 L 496.659 212.994 C 496.659 220.815 490.318 227.156 482.502 227.156 Z " fill="rgb(85,96,128)"/><circle vector-effect="non-scaling-stroke" cx="306.3476480236117" cy="40.768422120250435" r="13.73382003383341" fill="rgb(134,151,203)"/><circle vector-effect="non-scaling-stroke" cx="461.3436169768748" cy="34.88249924860804" r="3.92394858109526" fill="rgb(134,151,203)"/><circle vector-effect="non-scaling-stroke" cx="445.64782265249397" cy="34.882499248608" r="3.92394858109526" fill="rgb(134,151,203)"/><circle vector-effect="non-scaling-stroke" cx="469.1915141390651" cy="46.65434499189374" r="3.92394858109526" fill="rgb(134,151,203)"/><circle vector-effect="non-scaling-stroke" cx="453.4957198146844" cy="46.65434499189375" r="3.92394858109526" fill="rgb(134,151,203)"/><circle vector-effect="non-scaling-stroke" cx="429.9520283281128" cy="34.88249924860813" r="3.92394858109526" fill="rgb(134,151,203)"/><circle vector-effect="non-scaling-stroke" cx="437.7999254903038" cy="46.654344991893865" r="3.92394858109526" fill="rgb(134,151,203)"/><circle vector-effect="non-scaling-stroke" cx="414.2562340037319" cy="34.88249924860804" r="3.92394858109526" fill="rgb(134,151,203)"/><circle vector-effect="non-scaling-stroke" cx="422.10413116592275" cy="46.654344991893865" r="3.92394858109526" fill="rgb(134,151,203)"/><circle vector-effect="non-scaling-stroke" cx="398.56043967935085" cy="34.88249924860801" r="3.92394858109526" fill="rgb(134,151,203)"/><circle vector-effect="non-scaling-stroke" cx="406.4083368415415" cy="46.65434499189382" r="3.92394858109526" fill="rgb(134,151,203)"/><circle vector-effect="non-scaling-stroke" cx="306.34764802361195" cy="115.32344516106015" r="13.73382003383341" fill="rgb(134,151,203)"/><circle vector-effect="non-scaling-stroke" cx="461.34361697687456" cy="109.43752228941763" r="3.92394858109526" fill="rgb(134,151,203)"/><circle vector-effect="non-scaling-stroke" cx="445.64782265249363" cy="109.43752228941763" r="3.92394858109526" fill="rgb(134,151,203)"/><circle vector-effect="non-scaling-stroke" cx="469.19151413906485" cy="121.20936803270361" r="3.92394858109526" fill="rgb(134,151,203)"/><circle vector-effect="non-scaling-stroke" cx="453.4957198146844" cy="121.20936803270361" r="3.92394858109526" fill="rgb(134,151,203)"/><circle vector-effect="non-scaling-stroke" cx="429.95202832811293" cy="109.4375222894178" r="3.92394858109526" fill="rgb(134,151,203)"/><circle vector-effect="non-scaling-stroke" cx="437.7999254903039" cy="121.20936803270355" r="3.92394858109526" fill="rgb(134,151,203)"/><circle vector-effect="non-scaling-stroke" cx="414.2562340037319" cy="109.4375222894178" r="3.92394858109526" fill="rgb(134,151,203)"/><circle vector-effect="non-scaling-stroke" cx="422.1041311659225" cy="121.20936803270355" r="3.92394858109526" fill="rgb(134,151,203)"/><circle vector-effect="non-scaling-stroke" cx="398.56043967935074" cy="109.4375222894178" r="3.92394858109526" fill="rgb(134,151,203)"/><circle vector-effect="non-scaling-stroke" cx="406.40833684154126" cy="121.20936803270355" r="3.92394858109526" fill="rgb(134,151,203)"/><circle vector-effect="non-scaling-stroke" cx="306.34764802361184" cy="189.8784682018702" r="13.73382003383341" fill="rgb(134,151,203)"/><circle vector-effect="non-scaling-stroke" cx="461.34361697687456" cy="183.9925453302277" r="3.92394858109526" fill="rgb(134,151,203)"/><circle vector-effect="non-scaling-stroke" cx="445.64782265249374" cy="183.9925453302277" r="3.92394858109526" fill="rgb(134,151,203)"/><circle vector-effect="non-scaling-stroke" cx="469.1915141390651" cy="195.76439107351337" r="3.92394858109526" fill="rgb(134,151,203)"/><circle vector-effect="non-scaling-stroke" cx="453.4957198146846" cy="195.76439107351337" r="3.92394858109526" fill="rgb(134,151,203)"/><circle vector-effect="non-scaling-stroke" cx="429.95202832811293" cy="183.9925453302278" r="3.92394858109526" fill="rgb(134,151,203)"/><circle vector-effect="non-scaling-stroke" cx="437.7999254903039" cy="195.76439107351348" r="3.92394858109526" fill="rgb(134,151,203)"/><circle vector-effect="non-scaling-stroke" cx="414.2562340037319" cy="183.9925453302278" r="3.92394858109526" fill="rgb(134,151,203)"/><circle vector-effect="non-scaling-stroke" cx="422.1041311659225" cy="195.76439107351348" r="3.92394858109526" fill="rgb(134,151,203)"/><circle vector-effect="non-scaling-stroke" cx="398.56043967935074" cy="183.9925453302278" r="3.92394858109526" fill="rgb(134,151,203)"/><circle vector-effect="non-scaling-stroke" cx="406.40833684154126" cy="195.76439107351348" r="3.92394858109526" fill="rgb(134,151,203)"/></g><g><circle vector-effect="non-scaling-stroke" cx="453.49571981468404" cy="187.9164939113225" r="47.087382973143065" fill="rgb(38,185,153)"/><path d=" M 479.28 165.075 C 477.495 163.835 475.054 164.275 473.818 166.056 L 451.859 197.605 L 436.364 184.883 C 434.692 183.506 432.216 183.753 430.843 185.429 C 429.465 187.104 429.709 189.576 431.388 190.95 L 450.168 206.367 C 450.875 206.944 451.753 207.258 452.656 207.258 C 452.833 207.258 453.013 207.246 453.194 207.222 C 454.277 207.069 455.25 206.477 455.878 205.578 L 480.261 170.541 C 481.497 168.76 481.058 166.315 479.28 165.075 Z " fill="rgb(255,255,255)"/></g></g></g></g></g></svg>